<?xml version="1.0" encoding="UTF-8" standalone="no"?>
<!-- Created with Inkscape (http://www.inkscape.org/) -->

<svg
   width="100mm"
   height="100mm"
   viewBox="0 0 100 100"
   version="1.1"
   id="svg1"
   inkscape:version="1.3.2 (091e20e, 2023-11-25, custom)"
   sodipodi:docname="all.svg"
   xmlns:inkscape="http://www.inkscape.org/namespaces/inkscape"
   xmlns:sodipodi="http://sodipodi.sourceforge.net/DTD/sodipodi-0.dtd"
   xmlns="http://www.w3.org/2000/svg"
   xmlns:svg="http://www.w3.org/2000/svg">
  <sodipodi:namedview
     id="namedview1"
     pagecolor="#ffffff"
     bordercolor="#000000"
     borderopacity="0.25"
     inkscape:showpageshadow="2"
     inkscape:pageopacity="0.0"
     inkscape:pagecheckerboard="0"
     inkscape:deskcolor="#d1d1d1"
     inkscape:document-units="mm"
     inkscape:zoom="1"
     inkscape:cx="273.5"
     inkscape:cy="398.5"
     inkscape:window-width="1920"
     inkscape:window-height="1001"
     inkscape:window-x="-9"
     inkscape:window-y="-9"
     inkscape:window-maximized="1"
     inkscape:current-layer="layer1" />
  <defs
     id="defs1" />
  <g
     inkscape:label="Слой 1"
     inkscape:groupmode="layer"
     id="layer1">
    <circle
       style="fill:none;stroke:#139aff;stroke-width:3;stroke-opacity:1"
       id="path1"
       cx="50"
       cy="50"
       r="44.163624" />
    <path
       id="path3"
       style="fill:none;stroke:#139aff;stroke-width:2.99985;stroke-opacity:1"
       d="M 40.913326,59.096887 A 12.073695,12.075022 0 0 1 32.97362,62.075023 12.073695,12.075022 0 0 1 20.899925,50 12.073695,12.075022 0 0 1 32.97362,37.924977 a 12.073695,12.075022 0 0 1 7.939985,2.978382" />
    <path
       id="path3-3"
       style="fill:none;stroke:#139aff;stroke-width:2.99985;stroke-opacity:1"
       d="M 59.086733,40.903113 A 12.073695,12.075022 0 0 1 67.026448,37.924978 12.073695,12.075022 0 0 1 79.100134,50.000001 12.073695,12.075022 0 0 1 67.026448,62.075023 12.073695,12.075022 0 0 1 59.086453,59.096641" />
    <path
       style="fill:none;fill-opacity:1;stroke:#139aff;stroke-width:3;stroke-dasharray:none;stroke-opacity:1"
       d="M 40.73911,40.73911 59.26089,59.26089"
       id="path4" />
    <path
       style="fill:none;fill-opacity:1;stroke:#139aff;stroke-width:3;stroke-dasharray:none;stroke-opacity:1"
       d="M 40.73911,59.26089 59.26089,40.73911"
       id="path4-2" />
  </g>
</svg>
