<?xml version="1.0" encoding="UTF-8" standalone="no"?>
<!-- Created with Inkscape (http://www.inkscape.org/) -->

<svg
   width="100mm"
   height="100mm"
   viewBox="0 0 100 100"
   version="1.1"
   id="svg1"
   inkscape:version="1.3.2 (091e20e, 2023-11-25, custom)"
   sodipodi:docname="solar.svg"
   xmlns:inkscape="http://www.inkscape.org/namespaces/inkscape"
   xmlns:sodipodi="http://sodipodi.sourceforge.net/DTD/sodipodi-0.dtd"
   xmlns="http://www.w3.org/2000/svg"
   xmlns:svg="http://www.w3.org/2000/svg">
  <sodipodi:namedview
     id="namedview1"
     pagecolor="#ffffff"
     bordercolor="#000000"
     borderopacity="0.25"
     inkscape:showpageshadow="2"
     inkscape:pageopacity="0.0"
     inkscape:pagecheckerboard="0"
     inkscape:deskcolor="#d1d1d1"
     inkscape:document-units="mm"
     inkscape:zoom="2.0822708"
     inkscape:cx="157.76046"
     inkscape:cy="187.0554"
     inkscape:window-width="1920"
     inkscape:window-height="1001"
     inkscape:window-x="-9"
     inkscape:window-y="-9"
     inkscape:window-maximized="1"
     inkscape:current-layer="layer1" />
  <defs
     id="defs1" />
  <g
     inkscape:label="Слой 1"
     inkscape:groupmode="layer"
     id="layer1">
    <path
       id="path1"
       style="fill:#1499ff;fill-opacity:1;stroke-width:43.8594;stroke-linejoin:bevel;stroke-miterlimit:40"
       inkscape:transform-center-y="-5.8618836"
       d="m 49.922485,5.2195293 c 0.07318,0 -3.622103,9.4010377 -3.658691,9.3079597 -0.03659,-0.09308 7.353971,-0.09308 7.317383,0 -0.03659,0.09308 -3.731868,-9.3079597 -3.658692,-9.3079597 z m 17.291454,3.335197 c 0.06732,0.028682 -7.016868,7.2287347 -7.014045,7.1287637 0.0028,-0.09997 6.802031,2.797271 6.731889,2.868559 -0.07014,0.07129 0.21483,-10.0260052 0.282156,-9.9973227 z m -33.848066,0.018603 c 0.0679,-0.027279 0.14358,10.0736687 0.07493,10.0009407 -0.06865,-0.07273 6.789536,-2.828007 6.790283,-2.727999 7.47e-4,0.100008 -6.933115,-7.2456627 -6.865213,-7.2729417 z m 24.637256,0.4547526 c 0.04625,0.00923 -3.474704,5.4848191 -3.486092,5.4213751 -0.01139,-0.06344 4.659904,0.868726 4.625041,0.922941 -0.03486,0.05422 -1.1852,-6.3535441 -1.138949,-6.3443161 z M 41.988086,9.2239361 c 0.04617,-0.0096 -1.05249,6.4070339 -1.087789,6.3531009 -0.0353,-0.05393 4.628682,-1.023165 4.617806,-0.959631 -0.01088,0.06353 -3.576192,-5.3838692 -3.530017,-5.3934699 z M 27.214311,15.171894 c 0.03977,-0.02536 1.28927,6.363614 1.237133,6.325712 -0.05214,-0.0379 3.964131,-2.599022 3.976502,-2.535763 0.01237,0.06326 -5.253401,-3.764592 -5.213635,-3.789949 z m 45.921225,0.128674 c 0.03944,0.02586 -5.274868,3.786383 -5.261689,3.723287 0.01317,-0.0631 3.996556,2.549171 3.943941,2.586405 -0.05261,0.03724 1.278313,-6.335554 1.317748,-6.309692 z m 8.597413,2.759522 c 0.05174,0.05174 -9.208899,4.086276 -9.168951,3.994588 0.03994,-0.09169 5.266049,5.134416 5.174362,5.174361 -0.09169,0.03994 3.942843,-9.220693 3.994589,-9.168949 z m -63.676735,0.255281 c 0.05174,-0.05174 4.085758,9.208377 3.994071,9.168433 -0.09169,-0.03994 5.134416,-5.266049 5.174361,-5.174361 0.03994,0.09169 -9.220176,-3.942328 -9.168432,-3.994072 z m -2.760039,8.597408 c 0.02586,-0.03944 3.7869,5.274353 3.723804,5.261177 -0.0631,-0.01317 2.548654,-3.996559 2.585889,-3.943945 0.03723,0.05261 -6.335555,-1.277793 -6.309693,-1.317232 z m 69.580251,0.305925 c 0.02536,0.03976 -6.364135,1.28927 -6.326232,1.237133 0.0379,-0.05214 2.599021,3.964131 2.535761,3.976502 -0.06325,0.01237 3.765114,-5.2534 3.790471,-5.213635 z M 8.5508501,32.833865 c 0.028683,-0.06732 7.2287349,7.017382 7.1287639,7.014559 -0.09997,-0.0028 2.796754,-6.80255 2.868042,-6.732406 0.07129,0.07014 -10.0254883,-0.214832 -9.9968059,-0.282153 z M 91.47447,33.370266 c 0.02728,0.0679 -10.073667,0.143579 -10.000937,0.07493 0.07273,-0.06865 2.828008,6.789019 2.727996,6.789767 -0.100005,7.46e-4 7.245666,-6.9326 7.272941,-6.864697 z m -7.003705,7.534424 c 0.05393,-0.0353 1.023679,4.628165 0.960148,4.617289 -0.06353,-0.01087 5.383353,-3.576192 5.39295,-3.530017 0.0096,0.04617 -6.407033,-1.051973 -6.353098,-1.087272 z m -69.102243,0.0016 c 0.05422,0.03486 -6.3535437,1.184683 -6.3443152,1.138432 0.00923,-0.04625 5.4848182,3.475221 5.4213742,3.486609 -0.06344,0.01139 0.868726,-4.659904 0.922941,-4.625041 z m 70.152305,5.36143 c 0.09308,-0.03659 0.09308,7.354487 0,7.3179 -0.09307,-0.03659 9.307445,-3.732385 9.307445,-3.659209 0,0.07318 -9.40052,-3.622103 -9.307445,-3.658691 z m -71.04114,0.136426 c 0.09308,0.03659 -9.3079585,3.732384 -9.3079585,3.659208 0,-0.07318 9.4010365,3.622103 9.3079585,3.658692 -0.09308,0.03659 -0.09308,-7.354488 0,-7.3179 z m 0.08992,8.06359 c 0.06353,0.01088 -5.3838692,3.576192 -5.3934698,3.530017 -0.0096,-0.04618 6.4070328,1.051974 6.3531008,1.087272 -0.05393,0.0353 -1.023165,-4.628164 -0.959631,-4.617289 z m 70.984812,0.0015 c 0.06345,-0.01139 -0.868725,4.659905 -0.922937,4.625041 -0.05422,-0.03486 6.353543,-1.185199 6.344315,-1.138948 -0.0092,0.04625 -5.484819,-3.474704 -5.421378,-3.486093 z M 15.79847,59.754702 c 0.100008,-7.47e-4 -7.245662,6.932599 -7.2729409,6.864697 -0.027279,-0.0679 10.0736689,-0.143062 10.0009399,-0.07441 -0.07273,0.06865 -2.828007,-6.789536 -2.727999,-6.790284 z m 68.521914,0.397392 c 0.09998,0.0028 -2.797271,6.802033 -2.868559,6.731889 -0.07129,-0.07014 10.026005,0.215349 9.997324,0.28267 -0.02868,0.06732 -7.228735,-7.017382 -7.128765,-7.014559 z m -65.406342,7.405233 c 0.06326,-0.01237 -3.764592,5.253401 -3.789949,5.213635 -0.02536,-0.03977 6.363613,-1.289271 6.325711,-1.237134 -0.0379,0.05214 -2.599021,-3.96413 -2.535762,-3.976501 z m 62.065979,0.268717 c 0.0631,0.01318 -2.54917,3.996561 -2.586403,3.943945 -0.03723,-0.05262 6.335551,1.27831 6.309693,1.31775 -0.02586,0.03944 -3.786388,-5.27487 -3.72329,-5.261695 z m -3.030824,4.690153 c 0.09169,0.03995 -5.134414,5.266049 -5.174362,5.174361 -0.03994,-0.09169 9.220697,3.942845 9.168952,3.994588 -0.05175,0.05174 -4.086277,-9.208893 -3.99459,-9.168949 z m -55.687555,0.24443 c 0.09169,-0.03994 -3.942329,9.220692 -3.994072,9.168949 -0.05174,-0.05174 9.208377,-4.086276 9.168432,-3.994588 -0.03994,0.09169 -5.266048,-5.134417 -5.17436,-5.174361 z m 5.920569,5.618778 c 0.05262,-0.03723 -1.277793,6.335554 -1.317233,6.309693 -0.03944,-0.02586 5.274354,-3.786384 5.261177,-3.723288 -0.01317,0.0631 -3.99656,-2.54917 -3.943944,-2.586405 z m 43.365829,0.123507 c 0.05214,0.0379 -3.96413,2.598505 -3.976501,2.535245 -0.01237,-0.06326 5.253401,3.765109 5.213635,3.790467 -0.03977,0.02536 -1.289272,-6.363614 -1.237134,-6.325712 z m -4.989359,2.923336 c 0.06865,0.07273 -6.789021,2.82749 -6.789768,2.727481 -7.48e-4,-0.100008 6.932599,7.245663 6.8647,7.272942 -0.0679,0.02728 -0.143584,-10.073153 -0.07493,-10.000423 z m -33.490464,0.01189 c 0.07014,-0.07129 -0.214833,10.025489 -0.282153,9.996806 -0.06732,-0.02868 7.017382,-7.228735 7.014559,-7.128764 -0.0028,0.09997 -6.802549,-2.796753 -6.732406,-2.868042 z m 26.030969,2.984831 c 0.0353,0.05393 -4.628165,1.023681 -4.617289,0.960148 0.01088,-0.06353 3.576192,5.383869 3.530017,5.393469 -0.04617,0.0096 1.051973,-6.40755 1.087272,-6.353617 z m -18.240747,0.194298 c 0.03486,-0.05421 1.184682,6.353544 1.138432,6.344315 -0.04625,-0.0092 3.475221,-5.484817 3.486609,-5.421373 0.01139,0.06344 -4.659904,-0.868726 -4.625041,-0.922942 z m 5.559867,0.855762 c 0.03659,-0.09308 3.732385,9.307442 3.659209,9.307442 -0.07318,0 3.622103,-9.40052 3.658691,-9.307442 0.03659,0.09308 -7.354487,0.09308 -7.3179,0 z" />
    <circle
       style="fill:#1499ff;fill-opacity:1;stroke:#1499ff;stroke-width:5.2699"
       id="path2"
       cx="50"
       cy="50"
       r="29.865049" />
  </g>
</svg>
