<?xml version="1.0" encoding="UTF-8" standalone="no"?>
<!-- Created with Inkscape (http://www.inkscape.org/) -->

<svg
   width="100mm"
   height="100mm"
   viewBox="0 0 100 100"
   version="1.1"
   id="svg1"
   inkscape:version="1.3.2 (091e20e, 2023-11-25, custom)"
   sodipodi:docname="space_missions.svg"
   xmlns:inkscape="http://www.inkscape.org/namespaces/inkscape"
   xmlns:sodipodi="http://sodipodi.sourceforge.net/DTD/sodipodi-0.dtd"
   xmlns="http://www.w3.org/2000/svg"
   xmlns:svg="http://www.w3.org/2000/svg">
  <sodipodi:namedview
     id="namedview1"
     pagecolor="#ffffff"
     bordercolor="#000000"
     borderopacity="0.25"
     inkscape:showpageshadow="2"
     inkscape:pageopacity="0.0"
     inkscape:pagecheckerboard="0"
     inkscape:deskcolor="#d1d1d1"
     inkscape:document-units="mm"
     inkscape:zoom="1.0411354"
     inkscape:cx="154.15862"
     inkscape:cy="193.5387"
     inkscape:window-width="1920"
     inkscape:window-height="1001"
     inkscape:window-x="-9"
     inkscape:window-y="-9"
     inkscape:window-maximized="1"
     inkscape:current-layer="layer1" />
  <defs
     id="defs1" />
  <g
     inkscape:label="Слой 1"
     inkscape:groupmode="layer"
     id="layer1">
    <path
       id="rect1"
       style="fill:#1499ff;stroke-width:3"
       d="m 18.301935,16.931476 v 9.148279 h 7.306531 V 44.377346 H 18.365497 V 60.641469 H 31.27272 l -9.506913,9.506913 a 6.988564,6.988564 0 0 0 -3.694349,-1.057299 6.988564,6.988564 0 0 0 -6.98872,6.98872 6.988564,6.988564 0 0 0 6.98872,6.988721 6.988564,6.988564 0 0 0 6.988721,-6.988721 6.988564,6.988564 0 0 0 -1.497066,-4.314465 L 34.686982,60.641469 h 11.632881 v 8.57312 a 6.988564,6.988564 0 0 0 -6.05131,6.865214 6.988564,6.988564 0 0 0 6.988721,6.988721 6.988564,6.988564 0 0 0 6.988721,-6.988721 6.988564,6.988564 0 0 0 -5.511809,-6.824389 V 60.641469 H 60.010501 L 71.375182,72.00615 a 6.988564,6.988564 0 0 0 -1.380795,4.073653 6.988564,6.988564 0 0 0 6.988721,6.988721 6.988564,6.988564 0 0 0 6.988204,-6.988721 6.988564,6.988564 0 0 0 -6.988204,-6.98872 6.988564,6.988564 0 0 0 -3.878316,1.230932 L 63.424246,60.641469 H 76.688552 V 54.361232 L 88.917263,42.132005 79.124063,32.338804 67.085004,44.377346 H 29.547244 V 26.079755 h 7.306531 v -9.148279 z" />
  </g>
</svg>
